<svg width="8" height="8" viewBox="0 0 8 8" fill="none" xmlns="http://www.w3.org/2000/svg">
<path d="M3.62669 7.31338L5.47335 5.46672C5.59669 5.34338 5.66669 5.17338 5.66669 4.99672L5.66669 1.66672C5.66669 1.30005 5.36669 1.00005 5.00002 1.00005L2.00002 1.00005C1.73335 1.00005 1.49335 1.16005 1.38669 1.40338L0.30002 3.94005C0.02002 4.60005 0.503354 5.33338 1.22002 5.33338H3.10335L2.78669 6.86005C2.75335 7.02672 2.80335 7.19672 2.92335 7.31672C3.12002 7.51005 3.43335 7.51005 3.62669 7.31338ZM7.00002 1.00005C6.63335 1.00005 6.33335 1.30005 6.33335 1.66672L6.33335 4.33338C6.33335 4.70005 6.63335 5.00005 7.00002 5.00005C7.36669 5.00005 7.66669 4.70005 7.66669 4.33338L7.66669 1.66672C7.66669 1.30005 7.36669 1.00005 7.00002 1.00005Z" fill="#BA0909"/>
</svg>