<svg width="34" height="34" viewBox="0 0 34 34" fill="none" xmlns="http://www.w3.org/2000/svg">
<g clip-path="url(#clip0_190_447)">
<path fill-rule="evenodd" clip-rule="evenodd" d="M0 7.96875C0 7.54606 0.167912 7.14068 0.466799 6.8418C0.765685 6.54291 1.17106 6.375 1.59375 6.375H32.4062C32.8289 6.375 33.2343 6.54291 33.5332 6.8418C33.8321 7.14068 34 7.54606 34 7.96875C34 8.39144 33.8321 8.79682 33.5332 9.0957C33.2343 9.39459 32.8289 9.5625 32.4062 9.5625H1.59375C1.17106 9.5625 0.765685 9.39459 0.466799 9.0957C0.167912 8.79682 0 8.39144 0 7.96875ZM0 17C0 16.5773 0.167912 16.1719 0.466799 15.873C0.765685 15.5742 1.17106 15.4062 1.59375 15.4062H32.4062C32.8289 15.4062 33.2343 15.5742 33.5332 15.873C33.8321 16.1719 34 16.5773 34 17C34 17.4227 33.8321 17.8281 33.5332 18.127C33.2343 18.4258 32.8289 18.5938 32.4062 18.5938H1.59375C1.17106 18.5938 0.765685 18.4258 0.466799 18.127C0.167912 17.8281 0 17.4227 0 17ZM1.59375 24.4375C1.17106 24.4375 0.765685 24.6054 0.466799 24.9043C0.167912 25.2032 0 25.6086 0 26.0312C0 26.4539 0.167912 26.8593 0.466799 27.1582C0.765685 27.4571 1.17106 27.625 1.59375 27.625H32.4062C32.8289 27.625 33.2343 27.4571 33.5332 27.1582C33.8321 26.8593 34 26.4539 34 26.0312C34 25.6086 33.8321 25.2032 33.5332 24.9043C33.2343 24.6054 32.8289 24.4375 32.4062 24.4375H1.59375Z" fill="white"/>
</g>
<defs>
<clipPath id="clip0_190_447">
<rect width="34" height="34" fill="white"/>
</clipPath>
</defs>
</svg>