<svg width="8" height="8" viewBox="0 0 8 8" fill="none" xmlns="http://www.w3.org/2000/svg">
<path d="M4.37331 0.686616L2.52665 2.53328C2.40331 2.65662 2.33331 2.82662 2.33331 3.00328V6.33328C2.33331 6.69995 2.63331 6.99995 2.99998 6.99995H5.99998C6.26665 6.99995 6.50665 6.83995 6.61331 6.59662L7.69998 4.05995C7.97998 3.39995 7.49665 2.66662 6.77998 2.66662H4.89665L5.21331 1.13995C5.24665 0.973282 5.19665 0.803282 5.07665 0.683282C4.87998 0.489949 4.56665 0.489949 4.37331 0.686616ZM0.99998 6.99995C1.36665 6.99995 1.66665 6.69995 1.66665 6.33328V3.66662C1.66665 3.29995 1.36665 2.99995 0.99998 2.99995C0.633313 2.99995 0.333313 3.29995 0.333313 3.66662V6.33328C0.333313 6.69995 0.633313 6.99995 0.99998 6.99995Z" fill="#09BA3A"/>
</svg>