<svg width="34" height="34" viewBox="0 0 34 34" fill="none" xmlns="http://www.w3.org/2000/svg">
<g clip-path="url(#clip0_125_1387)">
<path fill-rule="evenodd" clip-rule="evenodd" d="M12.75 18.4167C13.5014 18.4167 14.2221 18.7152 14.7535 19.2465C15.2848 19.7779 15.5833 20.4986 15.5833 21.25V26.9167C15.5833 27.6681 15.2848 28.3888 14.7535 28.9201C14.2221 29.4515 13.5014 29.75 12.75 29.75H7.08333C6.33189 29.75 5.61122 29.4515 5.07986 28.9201C4.54851 28.3888 4.25 27.6681 4.25 26.9167V21.25C4.25 20.4986 4.54851 19.7779 5.07986 19.2465C5.61122 18.7152 6.33189 18.4167 7.08333 18.4167H12.75ZM26.9167 18.4167C27.6315 18.4164 28.32 18.6864 28.8441 19.1725C29.3682 19.6585 29.6893 20.3247 29.7429 21.0375L29.75 21.25V26.9167C29.7502 27.6315 29.4803 28.32 28.9942 28.8441C28.5082 29.3682 27.842 29.6893 27.1292 29.7429L26.9167 29.75H21.25C20.5352 29.7502 19.8467 29.4803 19.3226 28.9942C18.7984 28.5082 18.4774 27.842 18.4237 27.1292L18.4167 26.9167V21.25C18.4164 20.5352 18.6864 19.8467 19.1725 19.3226C19.6585 18.7984 20.3247 18.4774 21.0375 18.4237L21.25 18.4167H26.9167ZM12.75 21.25H7.08333V26.9167H12.75V21.25ZM26.9167 21.25H21.25V26.9167H26.9167V21.25ZM26.9167 4.25C27.6315 4.24977 28.32 4.51974 28.8441 5.00579C29.3682 5.49183 29.6893 6.15803 29.7429 6.87083L29.75 7.08333V12.75C29.7502 13.4648 29.4803 14.1533 28.9942 14.6774C28.5082 15.2016 27.842 15.5226 27.1292 15.5762L26.9167 15.5833H21.25C20.5352 15.5836 19.8467 15.3136 19.3226 14.8275C18.7984 14.3415 18.4774 13.6753 18.4237 12.9625L18.4167 12.75V7.08333C18.4164 6.36852 18.6864 5.68003 19.1725 5.15589C19.6585 4.63175 20.3247 4.31069 21.0375 4.25708L21.25 4.25H26.9167ZM12.75 4.25C13.4648 4.24977 14.1533 4.51974 14.6774 5.00579C15.2016 5.49183 15.5226 6.15803 15.5762 6.87083L15.5833 7.08333V12.75C15.5836 13.4648 15.3136 14.1533 14.8275 14.6774C14.3415 15.2016 13.6753 15.5226 12.9625 15.5762L12.75 15.5833H7.08333C6.36852 15.5836 5.68003 15.3136 5.15589 14.8275C4.63175 14.3415 4.31069 13.6753 4.25708 12.9625L4.25 12.75V7.08333C4.24977 6.36852 4.51974 5.68003 5.00579 5.15589C5.49183 4.63175 6.15803 4.31069 6.87083 4.25708L7.08333 4.25H12.75ZM26.9167 7.08333H21.25V12.75H26.9167V7.08333ZM12.75 7.08333H7.08333V12.75H12.75V7.08333Z" fill="white"/>
</g>
<defs>
<clipPath id="clip0_125_1387">
<rect width="34" height="34" fill="white"/>
</clipPath>
</defs>
</svg>