<svg width="34" height="34" viewBox="0 0 34 34" fill="none" xmlns="http://www.w3.org/2000/svg">
<path d="M10.625 9.5625H29.75M10.625 17H29.75M10.625 24.4375H29.75" stroke="white" stroke-width="2.25" stroke-linecap="round" stroke-linejoin="round"/>
<path d="M5.3125 10.625C5.8993 10.625 6.375 10.1493 6.375 9.5625C6.375 8.9757 5.8993 8.5 5.3125 8.5C4.7257 8.5 4.25 8.9757 4.25 9.5625C4.25 10.1493 4.7257 10.625 5.3125 10.625Z" stroke="white" stroke-width="1.5" stroke-linecap="round" stroke-linejoin="round"/>
<path d="M5.3125 18.0625C5.8993 18.0625 6.375 17.5868 6.375 17C6.375 16.4132 5.8993 15.9375 5.3125 15.9375C4.7257 15.9375 4.25 16.4132 4.25 17C4.25 17.5868 4.7257 18.0625 5.3125 18.0625Z" stroke="white" stroke-width="1.5" stroke-linecap="round" stroke-linejoin="round"/>
<path d="M5.3125 25.5C5.8993 25.5 6.375 25.0243 6.375 24.4375C6.375 23.8507 5.8993 23.375 5.3125 23.375C4.7257 23.375 4.25 23.8507 4.25 24.4375C4.25 25.0243 4.7257 25.5 5.3125 25.5Z" stroke="white" stroke-width="1.5" stroke-linecap="round" stroke-linejoin="round"/>
</svg>