<svg width="34" height="34" viewBox="0 0 34 34" fill="none" xmlns="http://www.w3.org/2000/svg">
<path d="M30.8125 29.3102L22.7885 21.2862C24.7167 18.9713 25.6783 16.0022 25.4731 12.9964C25.2679 9.99069 23.9118 7.17976 21.6869 5.14839C19.4621 3.11702 16.5397 2.02162 13.5277 2.09006C10.5157 2.1585 7.64613 3.3855 5.5158 5.51583C3.38547 7.64616 2.15847 10.5158 2.09003 13.5277C2.02159 16.5397 3.11699 19.4621 5.14836 21.687C7.17973 23.9119 9.99066 25.2679 12.9964 25.4731C16.0021 25.6783 18.9713 24.7167 21.2861 22.7885L29.3101 30.8125L30.8125 29.3102ZM4.25 13.8125C4.25 11.9212 4.81083 10.0724 5.86157 8.49989C6.91231 6.92735 8.40577 5.7017 10.1531 4.97793C11.9004 4.25417 13.8231 4.0648 15.6781 4.43377C17.533 4.80274 19.2369 5.71348 20.5742 7.05082C21.9115 8.38816 22.8223 10.092 23.1913 11.947C23.5602 13.8019 23.3709 15.7246 22.6471 17.4719C21.9233 19.2193 20.6977 20.7127 19.1251 21.7635C17.5526 22.8142 15.7038 23.375 13.8125 23.375C11.2772 23.3722 8.84661 22.3638 7.0539 20.5711C5.26119 18.7784 4.25281 16.3478 4.25 13.8125Z" fill="white"/>
</svg>